{"title":"Malice in Wonderland-AC3-5,1-DVDRip[Eng]2009","uid":5494861,"size":1463123552,"categoryP":"video","categoryS":"movies","magnet":"?xt=urn:btih:b8c8ae97893358b6e1898a3f62efad392120bf50&amp;dn=Malice+in+Wonderland-AC3-5%2C1-DVDRip%5BEng%5D2009&amp;tr=udp%3A%2F%2Ftracker.openbittorrent.com%3A80&amp;tr=udp%3A%2F%2Fopen.demonii.com%3A1337&amp;tr=udp%3A%2F%2Ftracker.coppersurfer.tk%3A6969&amp;tr=udp%3A%2F%2Fexodus.desync.com%3A6969","seeders":0,"leechers":0,"uploader":"FatFreddy31","files":-1,"time":1271204051,"description":" &lt;a href=&quot;http://www.imdb.com/title/tt0374853/&quot; rel=&quot;nofollow&quot; target=&quot;_NEW&quot;&gt;http://www.imdb.com/title/tt0374853/&lt;/a&gt;\n\nUser Rating:6.1/10 - 481 votes\n\nAction,Crime,Drama,Fantasy,Romance,Thriller\n\nDirector:Simon Fellows\n\nCast:Maggie Grace/Danny Dyer/Matt King/Nathaniel Parker, and others.\n\nPlot:\nAn American law student in London. Knocked down by a black cab, she wakes with amnesia in a world that's a million miles from home - Wonderland. We follow her adventures as she's dragged through an underworld filled with twisted individuals and the lowest low-lifers, by the enigmatic cab driver, Whitey. She needs to find out who she is, where she's from and use what wits she has left to get back home in one piece. As her journey progresses she discovers nothing is what it seems, realizes that fate and life are terminally entwined, and finds true love lurking in the unlikeliest place...\n\nInfo:\n\nCovers included.\n\nSubtitles: Dutch, English (srt).\n\nGeneral\nComplete name                    : Malice in Wonderland-AC3-5,1-DVDRip[Eng]2009.avi\nFormat                           : AVI\nFormat/Info                      : Audio Video Interleave\nFile size                        : 1.36 GiB\nDuration                         : 1h 23mn\nOverall bit rate                 : 2 347 Kbps\nWriting application              : VirtualDubMod 1.5.4.1 (build 2178/release)\nWriting library                  : VirtualDubMod build 2178/release\n\nVideo\nID                               : 0\nFormat                           : MPEG-4 Visual\nFormat profile                   : Simple@L3\nFormat settings, BVOP            : No\nFormat settings, QPel            : No\nFormat settings, GMC             : No warppoints\nFormat settings, Matrix          : Default (H.263)\nCodec ID                         : XVID\nCodec ID/Hint                    : XviD\nDuration                         : 1h 23mn\nBit rate                         : 1 889 Kbps\nWidth                            : 720 pixels\nHeight                           : 304 pixels\nDisplay aspect ratio             : 2.35:1\nFrame rate                       : 25.000 fps\nResolution                       : 24 bits\nColorimetry                      : 4:2:0\nScan type                        : Progressive\nBits/(Pixel*Frame)               : 0.345\nStream size                      : 1.10 GiB (80%)\nWriting library                  : XviD 1.1.2 (UTC 2006-11-01)\n\nAudio\nID                               : 1\nFormat                           : AC-3\nFormat/Info                      : Audio Coding 3\nCodec ID                         : 2000\nDuration                         : 1h 23mn\nBit rate mode                    : Constant\nBit rate                         : 448 Kbps\nChannel(s)                       : 6 channels\nChannel positions                : Front: L C R, Surround: L R, LFE\nSampling rate                    : 48.0 KHz\nStream size                      : 266 MiB (19%)\nAlignment                        : Split accross interleaves\nInterleave, duration             : 40 ms (1.00 video frame)\nInterleave, preload duration     : 500 ms\n\nEnjoy...\n\nGreetings to ZARCK, 2lions, and thanks to sendleech/Fast Release Team for the source.","torrent":{"xt":"urn:btih:b8c8ae97893358b6e1898a3f62efad392120bf50","amp;dn":"Malice+in+Wonderland-AC3-5%2C1-DVDRip%5BEng%5D2009","amp;tr":["udp%3A%2F%2Ftracker.openbittorrent.com%3A80","udp%3A%2F%2Fopen.demonii.com%3A1337","udp%3A%2F%2Ftracker.coppersurfer.tk%3A6969","udp%3A%2F%2Fexodus.desync.com%3A6969"],"infoHash":"b8c8ae97893358b6e1898a3f62efad392120bf50","infoHashBuffer":{"type":"Buffer","data":[184,200,174,151,137,51,88,182,225,137,138,63,98,239,173,57,33,32,191,80]},"announce":[],"urlList":[]}}